<svg xmlns="http://www.w3.org/2000/svg" xmlns:xlink="http://www.w3.org/1999/xlink" width="738.469" height="152.781" viewBox="0 0 738.469 152.781">
  <defs>
    <clipPath id="clip-path">
      <rect id="Rectángulo_9674" data-name="Rectángulo 9674" width="170.6" height="86.371" fill="none"/>
    </clipPath>
    <clipPath id="clip-path-3">
      <rect id="Rectángulo_9670" data-name="Rectángulo 9670" width="19.154" height="15.47" fill="none"/>
    </clipPath>
    <clipPath id="clip-path-5">
      <rect id="Rectángulo_9672" data-name="Rectángulo 9672" width="12.414" height="9.887" fill="none"/>
    </clipPath>
  </defs>
  <g id="Grupo_78934" data-name="Grupo 78934" transform="translate(7673 5354.531)">
    <g id="Grupo_78932" data-name="Grupo 78932" transform="translate(-7623 -5319.371)">
      <g id="Grupo_78931" data-name="Grupo 78931" transform="translate(0)" clip-path="url(#clip-path)">
        <path id="Trazado_138176" data-name="Trazado 138176" d="M10.092,195.286l20.083-13.118,126.04-1.454,16.127,13.343,4.3,10.068-5.09,8.184-41.318.3L95.5,196.974,52.9,213.966,12.25,208.02Z" transform="translate(-8.437 -137.759)" fill="#2b2a25"/>
        <g id="Grupo_78930" data-name="Grupo 78930">
          <g id="Grupo_78929" data-name="Grupo 78929" clip-path="url(#clip-path)">
            <path id="Trazado_138177" data-name="Trazado 138177" d="M39.171,229.353a18.076,18.076,0,1,0,18.076-18.076,18.076,18.076,0,0,0-18.076,18.076" transform="translate(85.967 -161.058)" fill="#777464"/>
            <path id="Trazado_138178" data-name="Trazado 138178" d="M87.347,217.324c-5.255,3.162-9.89,8.379-10.139,14.954-.342,9,3.689,19.214,18.917,18.8a22.541,22.541,0,0,0,7.326-1.506,20.709,20.709,0,0,1-10.061,2.417c-9.983,0-17.321-7.933-17.321-17.916a18.081,18.081,0,0,1,11.278-16.753" transform="translate(49.069 -165.667)" fill="#424038"/>
            <path id="Trazado_138179" data-name="Trazado 138179" d="M68.834,251.966a11.025,11.025,0,1,0,11.025-11.025,11.025,11.025,0,0,0-11.025,11.025" transform="translate(63.355 -183.671)" fill="#b7b29e"/>
            <path id="Trazado_138180" data-name="Trazado 138180" d="M72.609,254.844a10.128,10.128,0,1,0,10.128-10.128,10.128,10.128,0,0,0-10.128,10.128" transform="translate(60.477 -186.548)" fill="#969283"/>
            <path id="Trazado_138181" data-name="Trazado 138181" d="M85.014,264.3a7.179,7.179,0,1,0,7.179-7.179,7.179,7.179,0,0,0-7.179,7.179" transform="translate(51.021 -196.005)" fill="#777464"/>
            <path id="Trazado_138182" data-name="Trazado 138182" d="M110.851,273.459a1.038,1.038,0,0,0,2.076,0v-9.548a1.038,1.038,0,0,0-2.076,0Z" transform="translate(31.325 -200.39)" fill="#969283"/>
            <path id="Trazado_138183" data-name="Trazado 138183" d="M91.8,282.521a1.038,1.038,0,0,0,0,2.076h9.548a1.038,1.038,0,0,0,0-2.076Z" transform="translate(46.635 -215.367)" fill="#969283"/>
            <path id="Trazado_138184" data-name="Trazado 138184" d="M97.108,275.966a1.038,1.038,0,0,0,1.468,1.468l6.751-6.751a1.038,1.038,0,1,0-1.468-1.468Z" transform="translate(41.959 -204.992)" fill="#969283"/>
            <path id="Trazado_138185" data-name="Trazado 138185" d="M98.266,268.905a1.038,1.038,0,0,0-1.468,1.468l6.752,6.752a1.038,1.038,0,0,0,1.468-1.468Z" transform="translate(42.342 -204.756)" fill="#969283"/>
            <path id="Trazado_138186" data-name="Trazado 138186" d="M97.754,274.011a4.151,4.151,0,1,0,4.151-4.151,4.151,4.151,0,0,0-4.151,4.151" transform="translate(41.309 -205.716)" fill="#969283"/>
            <g id="Grupo_78922" data-name="Grupo 78922" transform="translate(140.435 51.938)" opacity="0.4">
              <g id="Grupo_78921" data-name="Grupo 78921" transform="translate(0)">
                <g id="Grupo_78920" data-name="Grupo 78920" clip-path="url(#clip-path-3)">
                  <path id="Trazado_138187" data-name="Trazado 138187" d="M65.467,233.979l-1.539-1.2a13.87,13.87,0,0,0-5.726-9.829,17.52,17.52,0,0,0-11.282-3.162l-.6-1.2s7.778-.94,13.162,3.419c6.485,5.25,5.983,11.966,5.983,11.966" transform="translate(-46.322 -218.509)" fill="#969283"/>
                </g>
              </g>
            </g>
            <path id="Trazado_138188" data-name="Trazado 138188" d="M113.152,265.116a.491.491,0,1,0,.492-.491.491.491,0,0,0-.492.491" transform="translate(29.57 -201.725)" fill="#b7b29e"/>
            <path id="Trazado_138189" data-name="Trazado 138189" d="M127.534,270.87a.492.492,0,1,0,.492-.492.491.491,0,0,0-.492.492" transform="translate(11.769 -206.111)" fill="#b7b29e"/>
            <path id="Trazado_138190" data-name="Trazado 138190" d="M134.367,285.432a.491.491,0,1,0,.491-.491.491.491,0,0,0-.491.491" transform="translate(3.312 -217.212)" fill="#b7b29e"/>
            <path id="Trazado_138191" data-name="Trazado 138191" d="M128.254,301.074a.491.491,0,1,0,.491-.491.492.492,0,0,0-.491.491" transform="translate(10.878 -229.136)" fill="#b7b29e"/>
            <path id="Trazado_138192" data-name="Trazado 138192" d="M112.972,306.468a.491.491,0,1,0,.491-.492.491.491,0,0,0-.491.492" transform="translate(29.792 -233.247)" fill="#b7b29e"/>
            <path id="Trazado_138193" data-name="Trazado 138193" d="M98.589,300.175a.491.491,0,1,0,.491-.491.492.492,0,0,0-.491.491" transform="translate(47.594 -228.451)" fill="#b7b29e"/>
            <path id="Trazado_138194" data-name="Trazado 138194" d="M92.836,285.612a.491.491,0,1,0,.492-.491.492.492,0,0,0-.492.491" transform="translate(54.715 -217.349)" fill="#b7b29e"/>
            <path id="Trazado_138195" data-name="Trazado 138195" d="M98.589,270.87a.491.491,0,1,0,.491-.492.491.491,0,0,0-.491.492" transform="translate(47.594 -206.111)" fill="#b7b29e"/>
            <path id="Trazado_138196" data-name="Trazado 138196" d="M105.629,280.014a2.279,2.279,0,1,0,2.279-2.279,2.279,2.279,0,0,0-2.279,2.279" transform="translate(35.305 -211.719)" fill="#b7b29e"/>
            <path id="Trazado_138197" data-name="Trazado 138197" d="M536.7,229.353a18.076,18.076,0,1,0,18.076-18.076A18.076,18.076,0,0,0,536.7,229.353" transform="translate(-529.825 -161.058)" fill="#777464"/>
            <path id="Trazado_138198" data-name="Trazado 138198" d="M584.879,217.324c-5.255,3.162-9.89,8.379-10.139,14.954-.342,9,3.689,19.214,18.917,18.8a22.54,22.54,0,0,0,7.326-1.506,20.707,20.707,0,0,1-10.061,2.417c-9.983,0-17.321-7.933-17.321-17.916a18.081,18.081,0,0,1,11.278-16.753" transform="translate(-566.724 -165.667)" fill="#424038"/>
            <path id="Trazado_138199" data-name="Trazado 138199" d="M566.365,251.966a11.025,11.025,0,1,0,11.025-11.025,11.025,11.025,0,0,0-11.025,11.025" transform="translate(-552.437 -183.671)" fill="#b7b29e"/>
            <path id="Trazado_138200" data-name="Trazado 138200" d="M570.142,254.844a10.128,10.128,0,1,0,10.128-10.128,10.128,10.128,0,0,0-10.128,10.128" transform="translate(-555.316 -186.548)" fill="#969283"/>
            <path id="Trazado_138201" data-name="Trazado 138201" d="M582.547,264.3a7.179,7.179,0,1,0,7.179-7.179,7.179,7.179,0,0,0-7.179,7.179" transform="translate(-564.773 -196.005)" fill="#777464"/>
            <path id="Trazado_138202" data-name="Trazado 138202" d="M608.383,273.459a1.038,1.038,0,0,0,2.076,0v-9.548a1.038,1.038,0,0,0-2.076,0Z" transform="translate(-584.468 -200.39)" fill="#969283"/>
            <path id="Trazado_138203" data-name="Trazado 138203" d="M589.336,282.521a1.038,1.038,0,0,0,0,2.076h9.548a1.038,1.038,0,0,0,0-2.076Z" transform="translate(-569.156 -215.367)" fill="#969283"/>
            <path id="Trazado_138204" data-name="Trazado 138204" d="M594.639,275.966a1.038,1.038,0,0,0,1.468,1.468l6.751-6.751a1.038,1.038,0,0,0-1.468-1.468Z" transform="translate(-573.832 -204.992)" fill="#969283"/>
            <path id="Trazado_138205" data-name="Trazado 138205" d="M595.8,268.905a1.038,1.038,0,0,0-1.468,1.468l6.751,6.752a1.038,1.038,0,0,0,1.468-1.468Z" transform="translate(-573.45 -204.756)" fill="#969283"/>
            <path id="Trazado_138206" data-name="Trazado 138206" d="M595.285,274.011a4.151,4.151,0,1,0,4.151-4.151,4.151,4.151,0,0,0-4.151,4.151" transform="translate(-574.483 -205.716)" fill="#969283"/>
            <g id="Grupo_78925" data-name="Grupo 78925" transform="translate(22.175 51.938)" opacity="0.4">
              <g id="Grupo_78924" data-name="Grupo 78924">
                <g id="Grupo_78923" data-name="Grupo 78923" clip-path="url(#clip-path-3)">
                  <path id="Trazado_138207" data-name="Trazado 138207" d="M563,233.979l-1.539-1.2a13.87,13.87,0,0,0-5.726-9.829,17.52,17.52,0,0,0-11.282-3.162l-.6-1.2s7.778-.94,13.162,3.419c6.485,5.25,5.983,11.966,5.983,11.966" transform="translate(-543.854 -218.509)" fill="#969283"/>
                </g>
              </g>
            </g>
            <path id="Trazado_138208" data-name="Trazado 138208" d="M610.684,265.116a.491.491,0,1,0,.491-.491.491.491,0,0,0-.491.491" transform="translate(-586.223 -201.725)" fill="#b7b29e"/>
            <path id="Trazado_138209" data-name="Trazado 138209" d="M625.066,270.87a.491.491,0,1,0,.491-.492.491.491,0,0,0-.491.492" transform="translate(-604.023 -206.111)" fill="#b7b29e"/>
            <path id="Trazado_138210" data-name="Trazado 138210" d="M631.9,285.432a.491.491,0,1,0,.491-.491.492.492,0,0,0-.491.491" transform="translate(-612.48 -217.212)" fill="#b7b29e"/>
            <path id="Trazado_138211" data-name="Trazado 138211" d="M625.785,301.074a.491.491,0,1,0,.491-.491.491.491,0,0,0-.491.491" transform="translate(-604.913 -229.136)" fill="#b7b29e"/>
            <path id="Trazado_138212" data-name="Trazado 138212" d="M610.5,306.468a.492.492,0,1,0,.492-.492.491.491,0,0,0-.492.492" transform="translate(-585.999 -233.247)" fill="#b7b29e"/>
            <path id="Trazado_138213" data-name="Trazado 138213" d="M596.12,300.175a.491.491,0,1,0,.491-.491.491.491,0,0,0-.491.491" transform="translate(-568.197 -228.451)" fill="#b7b29e"/>
            <path id="Trazado_138214" data-name="Trazado 138214" d="M590.367,285.612a.491.491,0,1,0,.491-.491.492.492,0,0,0-.491.491" transform="translate(-561.076 -217.349)" fill="#b7b29e"/>
            <path id="Trazado_138215" data-name="Trazado 138215" d="M596.12,270.87a.491.491,0,1,0,.491-.492.491.491,0,0,0-.491.492" transform="translate(-568.197 -206.111)" fill="#b7b29e"/>
            <path id="Trazado_138216" data-name="Trazado 138216" d="M603.16,280.014a2.279,2.279,0,1,0,2.279-2.279,2.279,2.279,0,0,0-2.279,2.279" transform="translate(-580.486 -211.719)" fill="#b7b29e"/>
            <path id="Trazado_138217" data-name="Trazado 138217" d="M170.6,64.968c.218-12.37-9.581-19.461-9.581-19.461s.3-7.185-1.8-9.88-6.587-8.982-18.862-9.88c-9.618-.7-12.575-2.1-12.575-2.1S102.647,3.2,95.447,2.094C66.105-2.4,27.4.911,22.009,6.6a38.516,38.516,0,0,0-8.9,18.847c-1.166,7.869.126,16.933-1.8,18.263-3.892,2.695-7.157,7.342-9.282,11.377C-.961,60.777.237,68.86.237,68.86l3.577,1.4s-.534-4.085,2.711-10.982C11.315,49.1,23.889,44.908,36.165,51.794s8.3,24.413,8.3,24.413l77.331-1.359s.312-11.263,4.192-17.665c5.988-9.88,23.952-12.275,32.036-3.293s5.09,20.659,5.09,20.659,7.306.572,7.485-9.581" transform="translate(0 0)" fill="#fc8730"/>
            <path id="Trazado_138218" data-name="Trazado 138218" d="M273.884,36.253c.553,3.077-3.456,1.88-45.144-2.013-18.538-1.731-41.957-3.792-41.957-3.792s5.79-15.164,11.479-18.064,23.252-2.1,30.737-1.2,17.964,4.92,23.054,8.6,21.5,14.6,21.831,16.469" transform="translate(-147.726 -7.895)" fill="#97c1bf"/>
            <path id="Trazado_138219" data-name="Trazado 138219" d="M52.023,145.139s2.071-3.686-.69-8.594c-2.021-3.593-3.817-5.613-8.533-5.838s-8.308,4.266-2.919,7.634c5.535,3.459,12.142,6.8,12.142,6.8" transform="translate(108.993 -99.633)" fill="#97c1bf"/>
            <path id="Trazado_138220" data-name="Trazado 138220" d="M452.93,16.653s-1.123,4.94-1.572,8.308-1.572,12.35-1.572,12.35l-2.245-.225s.9-7.859,1.8-12.125,2.021-8.533,2.021-8.533Z" transform="translate(-388.708 -12.523)" fill="#49473e"/>
            <path id="Trazado_138221" data-name="Trazado 138221" d="M596.412,11.7a3.547,3.547,0,0,1,2.694,1.8c.674,1.572-6.961,3.592-9.655,8.981s-4.491,9.431-7.186,13.473a10.025,10.025,0,0,1-3.593,3.368s.9-11,2.47-14.146,3.592-6.736,2.47-7.41-5.838.449-4.266-1.347S585.634,12.6,589,12.153a66.321,66.321,0,0,1,7.41-.449" transform="translate(-566.096 -8.922)" fill="#49473e"/>
            <path id="Trazado_138222" data-name="Trazado 138222" d="M223.756,109.841,107.443,98.614l-4.715,8.083s130.009,11,129.336,10.778-8.308-7.634-8.308-7.634" transform="translate(-85.884 -75.174)" fill="#ffac48"/>
            <path id="Trazado_138223" data-name="Trazado 138223" d="M315.355,207.078s-43.112,2.695-53.216-4.042c-8.449-5.632-13.921-17.514-13.921-17.514s5.613,6.736,19.535,11.227,47.6,10.329,47.6,10.329" transform="translate(-203.754 -141.425)" fill="#ffac48"/>
            <path id="Trazado_138224" data-name="Trazado 138224" d="M256.186,83.881q.92,0,1.865-.006c13.717-.083,26.78-1.086,26.91-1.1l.037,0,.035-.012c.1-.033,1-.4,2.308-3.13,1.7-3.549,3.378-9.611,4.852-17.533.838-4.5-2.062-18.378-2.151-18.93l-.9.075c.022.134,3.279,14.346,2.461,18.745-3.3,17.728-6.428,20.006-6.746,20.194-1.981.15-52.064,3.835-58.529-3.275-3.361-3.7-7.971-10.636-11.746-17.678-4.242-7.914-6.562-14.322-6.365-17.579.207-3.42,2.291-9.353,5.309-15.114,3.092-5.9,6.222-9.851,8.167-10.3l-.134-.583c-3.175.732-7.358,8.3-8.564,10.605-3.054,5.83-5.164,11.858-5.376,15.356-.2,3.365,2.141,9.889,6.434,17.9,3.8,7.083,8.44,14.069,11.831,17.8,2.756,3.031,12.946,4.566,30.3,4.566" transform="translate(-171.092 -13.459)" fill="#2b2a25"/>
            <path id="Trazado_138225" data-name="Trazado 138225" d="M630.977,144.917s6.262-.157,6.889-.157a1.665,1.665,0,0,1,1.565,1.409c0,.783-.47,5.793-.626,6.419a2.254,2.254,0,0,1-2.192,1.253c-1.1,0-6.575.156-6.575.156Z" transform="translate(-618.588 -110.351)" fill="#b52c1a"/>
            <path id="Trazado_138226" data-name="Trazado 138226" d="M639.267,148.7l-.561,6.945h-2.245l.561-7.015Z" transform="translate(-619.95 -113.304)" fill="#f23325"/>
            <g id="Grupo_78928" data-name="Grupo 78928" transform="translate(148.128 32.604)" opacity="0.5">
              <g id="Grupo_78927" data-name="Grupo 78927" transform="translate(0)">
                <g id="Grupo_78926" data-name="Grupo 78926" clip-path="url(#clip-path-5)">
                  <path id="Trazado_138227" data-name="Trazado 138227" d="M44.842,137.168s4.465.047,6.152,1.428c3.519,2.88,3.735,8.459,3.735,8.459l-2.417-.44s-1.292-4.319-2.637-5.823c-1.867-2.087-7.36-2.417-7.36-2.417Z" transform="translate(-42.315 -137.168)" fill="#fff"/>
                </g>
              </g>
            </g>
            <path id="Trazado_138228" data-name="Trazado 138228" d="M190.1,11.724c5.689-2.9,23.361-1.839,30.846-.94s17.964,4.92,23.054,8.6,21.5,14.6,21.831,16.469a1.152,1.152,0,0,1-.308,1.231.3.3,0,0,1-.015.05c-.524,1.273-7.71.374-7.71.374l-1.946-5.913c-5.345-4-11.019-7.482-14.248-9.816-5.09-3.678-15.569-7.7-23.054-8.6s-25.048-1.7-30.737,1.2a7.023,7.023,0,0,0-1.029.653,12.592,12.592,0,0,1,3.315-3.306" transform="translate(-139.671 -7.493)" fill="#49473e"/>
            <path id="Trazado_138229" data-name="Trazado 138229" d="M510.267,79.082s10.1,1.347,9.431,4.491-12.574,4.649-12.574,4.649a40.858,40.858,0,0,1,1.555-5.312c.587-1.356,1.588-3.828,1.588-3.828" transform="translate(-469.671 -60.285)" fill="#49473e"/>
          </g>
        </g>
      </g>
    </g>
    <g id="Grupo_78933" data-name="Grupo 78933" transform="translate(-7233 -5319.371)">
      <g id="Grupo_78931-2" data-name="Grupo 78931" transform="translate(0)" clip-path="url(#clip-path)">
        <path id="Trazado_138176-2" data-name="Trazado 138176" d="M10.092,195.286l20.083-13.118,126.04-1.454,16.127,13.343,4.3,10.068-5.09,8.184-41.318.3L95.5,196.974,52.9,213.966,12.25,208.02Z" transform="translate(-8.437 -137.759)" fill="#2b2a25"/>
        <g id="Grupo_78930-2" data-name="Grupo 78930">
          <g id="Grupo_78929-2" data-name="Grupo 78929" clip-path="url(#clip-path)">
            <path id="Trazado_138177-2" data-name="Trazado 138177" d="M39.171,229.353a18.076,18.076,0,1,0,18.076-18.076,18.076,18.076,0,0,0-18.076,18.076" transform="translate(85.967 -161.058)" fill="#777464"/>
            <path id="Trazado_138178-2" data-name="Trazado 138178" d="M87.347,217.324c-5.255,3.162-9.89,8.379-10.139,14.954-.342,9,3.689,19.214,18.917,18.8a22.541,22.541,0,0,0,7.326-1.506,20.709,20.709,0,0,1-10.061,2.417c-9.983,0-17.321-7.933-17.321-17.916a18.081,18.081,0,0,1,11.278-16.753" transform="translate(49.069 -165.667)" fill="#424038"/>
            <path id="Trazado_138179-2" data-name="Trazado 138179" d="M68.834,251.966a11.025,11.025,0,1,0,11.025-11.025,11.025,11.025,0,0,0-11.025,11.025" transform="translate(63.355 -183.671)" fill="#b7b29e"/>
            <path id="Trazado_138180-2" data-name="Trazado 138180" d="M72.609,254.844a10.128,10.128,0,1,0,10.128-10.128,10.128,10.128,0,0,0-10.128,10.128" transform="translate(60.477 -186.548)" fill="#969283"/>
            <path id="Trazado_138181-2" data-name="Trazado 138181" d="M85.014,264.3a7.179,7.179,0,1,0,7.179-7.179,7.179,7.179,0,0,0-7.179,7.179" transform="translate(51.021 -196.005)" fill="#777464"/>
            <path id="Trazado_138182-2" data-name="Trazado 138182" d="M110.851,273.459a1.038,1.038,0,0,0,2.076,0v-9.548a1.038,1.038,0,0,0-2.076,0Z" transform="translate(31.325 -200.39)" fill="#969283"/>
            <path id="Trazado_138183-2" data-name="Trazado 138183" d="M91.8,282.521a1.038,1.038,0,0,0,0,2.076h9.548a1.038,1.038,0,0,0,0-2.076Z" transform="translate(46.635 -215.367)" fill="#969283"/>
            <path id="Trazado_138184-2" data-name="Trazado 138184" d="M97.108,275.966a1.038,1.038,0,0,0,1.468,1.468l6.751-6.751a1.038,1.038,0,1,0-1.468-1.468Z" transform="translate(41.959 -204.992)" fill="#969283"/>
            <path id="Trazado_138185-2" data-name="Trazado 138185" d="M98.266,268.905a1.038,1.038,0,0,0-1.468,1.468l6.752,6.752a1.038,1.038,0,0,0,1.468-1.468Z" transform="translate(42.342 -204.756)" fill="#969283"/>
            <path id="Trazado_138186-2" data-name="Trazado 138186" d="M97.754,274.011a4.151,4.151,0,1,0,4.151-4.151,4.151,4.151,0,0,0-4.151,4.151" transform="translate(41.309 -205.716)" fill="#969283"/>
            <g id="Grupo_78922-2" data-name="Grupo 78922" transform="translate(140.435 51.938)" opacity="0.4">
              <g id="Grupo_78921-2" data-name="Grupo 78921" transform="translate(0)">
                <g id="Grupo_78920-2" data-name="Grupo 78920" clip-path="url(#clip-path-3)">
                  <path id="Trazado_138187-2" data-name="Trazado 138187" d="M65.467,233.979l-1.539-1.2a13.87,13.87,0,0,0-5.726-9.829,17.52,17.52,0,0,0-11.282-3.162l-.6-1.2s7.778-.94,13.162,3.419c6.485,5.25,5.983,11.966,5.983,11.966" transform="translate(-46.322 -218.509)" fill="#969283"/>
                </g>
              </g>
            </g>
            <path id="Trazado_138188-2" data-name="Trazado 138188" d="M113.152,265.116a.491.491,0,1,0,.492-.491.491.491,0,0,0-.492.491" transform="translate(29.57 -201.725)" fill="#b7b29e"/>
            <path id="Trazado_138189-2" data-name="Trazado 138189" d="M127.534,270.87a.492.492,0,1,0,.492-.492.491.491,0,0,0-.492.492" transform="translate(11.769 -206.111)" fill="#b7b29e"/>
            <path id="Trazado_138190-2" data-name="Trazado 138190" d="M134.367,285.432a.491.491,0,1,0,.491-.491.491.491,0,0,0-.491.491" transform="translate(3.312 -217.212)" fill="#b7b29e"/>
            <path id="Trazado_138191-2" data-name="Trazado 138191" d="M128.254,301.074a.491.491,0,1,0,.491-.491.492.492,0,0,0-.491.491" transform="translate(10.878 -229.136)" fill="#b7b29e"/>
            <path id="Trazado_138192-2" data-name="Trazado 138192" d="M112.972,306.468a.491.491,0,1,0,.491-.492.491.491,0,0,0-.491.492" transform="translate(29.792 -233.247)" fill="#b7b29e"/>
            <path id="Trazado_138193-2" data-name="Trazado 138193" d="M98.589,300.175a.491.491,0,1,0,.491-.491.492.492,0,0,0-.491.491" transform="translate(47.594 -228.451)" fill="#b7b29e"/>
            <path id="Trazado_138194-2" data-name="Trazado 138194" d="M92.836,285.612a.491.491,0,1,0,.492-.491.492.492,0,0,0-.492.491" transform="translate(54.715 -217.349)" fill="#b7b29e"/>
            <path id="Trazado_138195-2" data-name="Trazado 138195" d="M98.589,270.87a.491.491,0,1,0,.491-.492.491.491,0,0,0-.491.492" transform="translate(47.594 -206.111)" fill="#b7b29e"/>
            <path id="Trazado_138196-2" data-name="Trazado 138196" d="M105.629,280.014a2.279,2.279,0,1,0,2.279-2.279,2.279,2.279,0,0,0-2.279,2.279" transform="translate(35.305 -211.719)" fill="#b7b29e"/>
            <path id="Trazado_138197-2" data-name="Trazado 138197" d="M536.7,229.353a18.076,18.076,0,1,0,18.076-18.076A18.076,18.076,0,0,0,536.7,229.353" transform="translate(-529.825 -161.058)" fill="#777464"/>
            <path id="Trazado_138198-2" data-name="Trazado 138198" d="M584.879,217.324c-5.255,3.162-9.89,8.379-10.139,14.954-.342,9,3.689,19.214,18.917,18.8a22.54,22.54,0,0,0,7.326-1.506,20.707,20.707,0,0,1-10.061,2.417c-9.983,0-17.321-7.933-17.321-17.916a18.081,18.081,0,0,1,11.278-16.753" transform="translate(-566.724 -165.667)" fill="#424038"/>
            <path id="Trazado_138199-2" data-name="Trazado 138199" d="M566.365,251.966a11.025,11.025,0,1,0,11.025-11.025,11.025,11.025,0,0,0-11.025,11.025" transform="translate(-552.437 -183.671)" fill="#b7b29e"/>
            <path id="Trazado_138200-2" data-name="Trazado 138200" d="M570.142,254.844a10.128,10.128,0,1,0,10.128-10.128,10.128,10.128,0,0,0-10.128,10.128" transform="translate(-555.316 -186.548)" fill="#969283"/>
            <path id="Trazado_138201-2" data-name="Trazado 138201" d="M582.547,264.3a7.179,7.179,0,1,0,7.179-7.179,7.179,7.179,0,0,0-7.179,7.179" transform="translate(-564.773 -196.005)" fill="#777464"/>
            <path id="Trazado_138202-2" data-name="Trazado 138202" d="M608.383,273.459a1.038,1.038,0,0,0,2.076,0v-9.548a1.038,1.038,0,0,0-2.076,0Z" transform="translate(-584.468 -200.39)" fill="#969283"/>
            <path id="Trazado_138203-2" data-name="Trazado 138203" d="M589.336,282.521a1.038,1.038,0,0,0,0,2.076h9.548a1.038,1.038,0,0,0,0-2.076Z" transform="translate(-569.156 -215.367)" fill="#969283"/>
            <path id="Trazado_138204-2" data-name="Trazado 138204" d="M594.639,275.966a1.038,1.038,0,0,0,1.468,1.468l6.751-6.751a1.038,1.038,0,0,0-1.468-1.468Z" transform="translate(-573.832 -204.992)" fill="#969283"/>
            <path id="Trazado_138205-2" data-name="Trazado 138205" d="M595.8,268.905a1.038,1.038,0,0,0-1.468,1.468l6.751,6.752a1.038,1.038,0,0,0,1.468-1.468Z" transform="translate(-573.45 -204.756)" fill="#969283"/>
            <path id="Trazado_138206-2" data-name="Trazado 138206" d="M595.285,274.011a4.151,4.151,0,1,0,4.151-4.151,4.151,4.151,0,0,0-4.151,4.151" transform="translate(-574.483 -205.716)" fill="#969283"/>
            <g id="Grupo_78925-2" data-name="Grupo 78925" transform="translate(22.175 51.938)" opacity="0.4">
              <g id="Grupo_78924-2" data-name="Grupo 78924">
                <g id="Grupo_78923-2" data-name="Grupo 78923" clip-path="url(#clip-path-3)">
                  <path id="Trazado_138207-2" data-name="Trazado 138207" d="M563,233.979l-1.539-1.2a13.87,13.87,0,0,0-5.726-9.829,17.52,17.52,0,0,0-11.282-3.162l-.6-1.2s7.778-.94,13.162,3.419c6.485,5.25,5.983,11.966,5.983,11.966" transform="translate(-543.854 -218.509)" fill="#969283"/>
                </g>
              </g>
            </g>
            <path id="Trazado_138208-2" data-name="Trazado 138208" d="M610.684,265.116a.491.491,0,1,0,.491-.491.491.491,0,0,0-.491.491" transform="translate(-586.223 -201.725)" fill="#b7b29e"/>
            <path id="Trazado_138209-2" data-name="Trazado 138209" d="M625.066,270.87a.491.491,0,1,0,.491-.492.491.491,0,0,0-.491.492" transform="translate(-604.023 -206.111)" fill="#b7b29e"/>
            <path id="Trazado_138210-2" data-name="Trazado 138210" d="M631.9,285.432a.491.491,0,1,0,.491-.491.492.492,0,0,0-.491.491" transform="translate(-612.48 -217.212)" fill="#b7b29e"/>
            <path id="Trazado_138211-2" data-name="Trazado 138211" d="M625.785,301.074a.491.491,0,1,0,.491-.491.491.491,0,0,0-.491.491" transform="translate(-604.913 -229.136)" fill="#b7b29e"/>
            <path id="Trazado_138212-2" data-name="Trazado 138212" d="M610.5,306.468a.492.492,0,1,0,.492-.492.491.491,0,0,0-.492.492" transform="translate(-585.999 -233.247)" fill="#b7b29e"/>
            <path id="Trazado_138213-2" data-name="Trazado 138213" d="M596.12,300.175a.491.491,0,1,0,.491-.491.491.491,0,0,0-.491.491" transform="translate(-568.197 -228.451)" fill="#b7b29e"/>
            <path id="Trazado_138214-2" data-name="Trazado 138214" d="M590.367,285.612a.491.491,0,1,0,.491-.491.492.492,0,0,0-.491.491" transform="translate(-561.076 -217.349)" fill="#b7b29e"/>
            <path id="Trazado_138215-2" data-name="Trazado 138215" d="M596.12,270.87a.491.491,0,1,0,.491-.492.491.491,0,0,0-.491.492" transform="translate(-568.197 -206.111)" fill="#b7b29e"/>
            <path id="Trazado_138216-2" data-name="Trazado 138216" d="M603.16,280.014a2.279,2.279,0,1,0,2.279-2.279,2.279,2.279,0,0,0-2.279,2.279" transform="translate(-580.486 -211.719)" fill="#b7b29e"/>
            <path id="Trazado_138217-2" data-name="Trazado 138217" d="M170.6,64.968c.218-12.37-9.581-19.461-9.581-19.461s.3-7.185-1.8-9.88-6.587-8.982-18.862-9.88c-9.618-.7-12.575-2.1-12.575-2.1S102.647,3.2,95.447,2.094C66.105-2.4,27.4.911,22.009,6.6a38.516,38.516,0,0,0-8.9,18.847c-1.166,7.869.126,16.933-1.8,18.263-3.892,2.695-7.157,7.342-9.282,11.377C-.961,60.777.237,68.86.237,68.86l3.577,1.4s-.534-4.085,2.711-10.982C11.315,49.1,23.889,44.908,36.165,51.794s8.3,24.413,8.3,24.413l77.331-1.359s.312-11.263,4.192-17.665c5.988-9.88,23.952-12.275,32.036-3.293s5.09,20.659,5.09,20.659,7.306.572,7.485-9.581" transform="translate(0 0)" fill="#fc8730"/>
            <path id="Trazado_138218-2" data-name="Trazado 138218" d="M273.884,36.253c.553,3.077-3.456,1.88-45.144-2.013-18.538-1.731-41.957-3.792-41.957-3.792s5.79-15.164,11.479-18.064,23.252-2.1,30.737-1.2,17.964,4.92,23.054,8.6,21.5,14.6,21.831,16.469" transform="translate(-147.726 -7.895)" fill="#97c1bf"/>
            <path id="Trazado_138219-2" data-name="Trazado 138219" d="M52.023,145.139s2.071-3.686-.69-8.594c-2.021-3.593-3.817-5.613-8.533-5.838s-8.308,4.266-2.919,7.634c5.535,3.459,12.142,6.8,12.142,6.8" transform="translate(108.993 -99.633)" fill="#97c1bf"/>
            <path id="Trazado_138220-2" data-name="Trazado 138220" d="M452.93,16.653s-1.123,4.94-1.572,8.308-1.572,12.35-1.572,12.35l-2.245-.225s.9-7.859,1.8-12.125,2.021-8.533,2.021-8.533Z" transform="translate(-388.708 -12.523)" fill="#49473e"/>
            <path id="Trazado_138221-2" data-name="Trazado 138221" d="M596.412,11.7a3.547,3.547,0,0,1,2.694,1.8c.674,1.572-6.961,3.592-9.655,8.981s-4.491,9.431-7.186,13.473a10.025,10.025,0,0,1-3.593,3.368s.9-11,2.47-14.146,3.592-6.736,2.47-7.41-5.838.449-4.266-1.347S585.634,12.6,589,12.153a66.321,66.321,0,0,1,7.41-.449" transform="translate(-566.096 -8.922)" fill="#49473e"/>
            <path id="Trazado_138222-2" data-name="Trazado 138222" d="M223.756,109.841,107.443,98.614l-4.715,8.083s130.009,11,129.336,10.778-8.308-7.634-8.308-7.634" transform="translate(-85.884 -75.174)" fill="#ffac48"/>
            <path id="Trazado_138223-2" data-name="Trazado 138223" d="M315.355,207.078s-43.112,2.695-53.216-4.042c-8.449-5.632-13.921-17.514-13.921-17.514s5.613,6.736,19.535,11.227,47.6,10.329,47.6,10.329" transform="translate(-203.754 -141.425)" fill="#ffac48"/>
            <path id="Trazado_138224-2" data-name="Trazado 138224" d="M256.186,83.881q.92,0,1.865-.006c13.717-.083,26.78-1.086,26.91-1.1l.037,0,.035-.012c.1-.033,1-.4,2.308-3.13,1.7-3.549,3.378-9.611,4.852-17.533.838-4.5-2.062-18.378-2.151-18.93l-.9.075c.022.134,3.279,14.346,2.461,18.745-3.3,17.728-6.428,20.006-6.746,20.194-1.981.15-52.064,3.835-58.529-3.275-3.361-3.7-7.971-10.636-11.746-17.678-4.242-7.914-6.562-14.322-6.365-17.579.207-3.42,2.291-9.353,5.309-15.114,3.092-5.9,6.222-9.851,8.167-10.3l-.134-.583c-3.175.732-7.358,8.3-8.564,10.605-3.054,5.83-5.164,11.858-5.376,15.356-.2,3.365,2.141,9.889,6.434,17.9,3.8,7.083,8.44,14.069,11.831,17.8,2.756,3.031,12.946,4.566,30.3,4.566" transform="translate(-171.092 -13.459)" fill="#2b2a25"/>
            <path id="Trazado_138225-2" data-name="Trazado 138225" d="M630.977,144.917s6.262-.157,6.889-.157a1.665,1.665,0,0,1,1.565,1.409c0,.783-.47,5.793-.626,6.419a2.254,2.254,0,0,1-2.192,1.253c-1.1,0-6.575.156-6.575.156Z" transform="translate(-618.588 -110.351)" fill="#b52c1a"/>
            <path id="Trazado_138226-2" data-name="Trazado 138226" d="M639.267,148.7l-.561,6.945h-2.245l.561-7.015Z" transform="translate(-619.95 -113.304)" fill="#f23325"/>
            <g id="Grupo_78928-2" data-name="Grupo 78928" transform="translate(148.128 32.604)" opacity="0.5">
              <g id="Grupo_78927-2" data-name="Grupo 78927" transform="translate(0)">
                <g id="Grupo_78926-2" data-name="Grupo 78926" clip-path="url(#clip-path-5)">
                  <path id="Trazado_138227-2" data-name="Trazado 138227" d="M44.842,137.168s4.465.047,6.152,1.428c3.519,2.88,3.735,8.459,3.735,8.459l-2.417-.44s-1.292-4.319-2.637-5.823c-1.867-2.087-7.36-2.417-7.36-2.417Z" transform="translate(-42.315 -137.168)" fill="#fff"/>
                </g>
              </g>
            </g>
            <path id="Trazado_138228-2" data-name="Trazado 138228" d="M190.1,11.724c5.689-2.9,23.361-1.839,30.846-.94s17.964,4.92,23.054,8.6,21.5,14.6,21.831,16.469a1.152,1.152,0,0,1-.308,1.231.3.3,0,0,1-.015.05c-.524,1.273-7.71.374-7.71.374l-1.946-5.913c-5.345-4-11.019-7.482-14.248-9.816-5.09-3.678-15.569-7.7-23.054-8.6s-25.048-1.7-30.737,1.2a7.023,7.023,0,0,0-1.029.653,12.592,12.592,0,0,1,3.315-3.306" transform="translate(-139.671 -7.493)" fill="#49473e"/>
            <path id="Trazado_138229-2" data-name="Trazado 138229" d="M510.267,79.082s10.1,1.347,9.431,4.491-12.574,4.649-12.574,4.649a40.858,40.858,0,0,1,1.555-5.312c.587-1.356,1.588-3.828,1.588-3.828" transform="translate(-469.671 -60.285)" fill="#49473e"/>
          </g>
        </g>
      </g>
    </g>
    <path id="Trazado_138230" data-name="Trazado 138230" d="M-7673-5233h738.469" fill="none" stroke="#030303" stroke-width="1"/>
    <path id="Trazado_138238" data-name="Trazado 138238" d="M2.93,0H1.43V-11.375h1.5ZM6.813-8.453l.047,1.063A3.08,3.08,0,0,1,9.391-8.609q2.68,0,2.7,3.023V0H10.648V-5.594a1.946,1.946,0,0,0-.418-1.352,1.675,1.675,0,0,0-1.277-.437,2.086,2.086,0,0,0-1.234.375,2.546,2.546,0,0,0-.828.984V0H5.445V-8.453ZM17.781.156a3.693,3.693,0,0,1-2.8-1.129,4.19,4.19,0,0,1-1.078-3.02v-.266a5.073,5.073,0,0,1,.48-2.246A3.748,3.748,0,0,1,15.73-8.051,3.378,3.378,0,0,1,17.6-8.609a3.166,3.166,0,0,1,2.563,1.086,4.7,4.7,0,0,1,.914,3.109v.6H15.352a3,3,0,0,0,.73,2.02,2.3,2.3,0,0,0,1.777.77,2.517,2.517,0,0,0,1.3-.312,3.259,3.259,0,0,0,.93-.828l.883.688A3.55,3.55,0,0,1,17.781.156ZM17.6-7.422a1.928,1.928,0,0,0-1.469.637A3.1,3.1,0,0,0,15.4-5h4.234v-.109a2.753,2.753,0,0,0-.594-1.707A1.815,1.815,0,0,0,17.6-7.422Zm9.234.266a4.331,4.331,0,0,0-.711-.055A1.9,1.9,0,0,0,24.2-6V0H22.75V-8.453h1.406l.023.977A2.251,2.251,0,0,1,26.2-8.609a1.477,1.477,0,0,1,.641.109Zm4.57,6.133a2.082,2.082,0,0,0,1.352-.469A1.649,1.649,0,0,0,33.4-2.664h1.367a2.621,2.621,0,0,1-.5,1.383,3.293,3.293,0,0,1-1.23,1.047,3.55,3.55,0,0,1-1.629.391A3.482,3.482,0,0,1,28.66-1a4.59,4.59,0,0,1-1.02-3.152v-.242a5.089,5.089,0,0,1,.453-2.2,3.451,3.451,0,0,1,1.3-1.492,3.7,3.7,0,0,1,2-.531,3.39,3.39,0,0,1,2.363.852,3.043,3.043,0,0,1,1,2.211H33.4a1.992,1.992,0,0,0-.621-1.348A1.932,1.932,0,0,0,31.4-7.422a2.023,2.023,0,0,0-1.707.793,3.724,3.724,0,0,0-.605,2.293v.273a3.65,3.65,0,0,0,.6,2.25A2.033,2.033,0,0,0,31.406-1.023ZM37.961,0H36.516V-8.453h1.445ZM36.4-10.7a.863.863,0,0,1,.215-.594.807.807,0,0,1,.637-.242.819.819,0,0,1,.641.242.854.854,0,0,1,.219.594.826.826,0,0,1-.219.586.834.834,0,0,1-.641.234.821.821,0,0,1-.637-.234A.834.834,0,0,1,36.4-10.7ZM45.492,0a3.036,3.036,0,0,1-.2-.891A3.225,3.225,0,0,1,42.883.156a2.984,2.984,0,0,1-2.051-.707,2.287,2.287,0,0,1-.8-1.793,2.39,2.39,0,0,1,1-2.051,4.733,4.733,0,0,1,2.824-.73h1.406v-.664A1.623,1.623,0,0,0,44.813-7a1.821,1.821,0,0,0-1.336-.449,2.107,2.107,0,0,0-1.3.391,1.151,1.151,0,0,0-.523.945H40.2a2,2,0,0,1,.449-1.223,3.066,3.066,0,0,1,1.219-.934,4.1,4.1,0,0,1,1.691-.344,3.342,3.342,0,0,1,2.289.73,2.635,2.635,0,0,1,.859,2.012v3.891a4.757,4.757,0,0,0,.3,1.852V0Zm-2.4-1.1a2.54,2.54,0,0,0,1.289-.352,2.127,2.127,0,0,0,.883-.914V-4.1H44.133q-2.656,0-2.656,1.555a1.316,1.316,0,0,0,.453,1.063A1.742,1.742,0,0,0,43.094-1.1Z" transform="translate(-7587 -5343)" fill="#12263f"/>
    <path id="Trazado_138235" data-name="Trazado 138235" d="M5.227-4.164H3.359V0H1.016V-11.375H5.242a4.778,4.778,0,0,1,3.109.9A3.1,3.1,0,0,1,9.445-7.937,3.5,3.5,0,0,1,8.941-6,3.437,3.437,0,0,1,7.414-4.758L9.875-.109V0H7.359Zm-1.867-1.9H5.25a1.936,1.936,0,0,0,1.367-.449A1.606,1.606,0,0,0,7.1-7.75a1.719,1.719,0,0,0-.457-1.266,1.9,1.9,0,0,0-1.4-.461H3.359ZM14.969.156A4.15,4.15,0,0,1,11.941-.984a4.054,4.054,0,0,1-1.168-3.039v-.219a5.106,5.106,0,0,1,.492-2.277A3.612,3.612,0,0,1,12.66-8.066a3.914,3.914,0,0,1,2.059-.543,3.508,3.508,0,0,1,2.73,1.094,4.444,4.444,0,0,1,1,3.1v.922H13.063a2.1,2.1,0,0,0,.66,1.328,2,2,0,0,0,1.395.5,2.437,2.437,0,0,0,2.039-.945l1.109,1.242A3.389,3.389,0,0,1,16.891-.246,4.511,4.511,0,0,1,14.969.156Zm-.258-6.937a1.414,1.414,0,0,0-1.09.453,2.341,2.341,0,0,0-.535,1.3h3.141v-.18a1.669,1.669,0,0,0-.406-1.16A1.459,1.459,0,0,0,14.711-6.781ZM27.336-4.148a5.07,5.07,0,0,1-.887,3.129A2.843,2.843,0,0,1,24.055.156a2.633,2.633,0,0,1-2.07-.891V3.25H19.727v-11.7H21.82l.078.828a2.654,2.654,0,0,1,2.141-.984,2.862,2.862,0,0,1,2.43,1.156,5.207,5.207,0,0,1,.867,3.188Zm-2.258-.164a3.327,3.327,0,0,0-.418-1.82,1.361,1.361,0,0,0-1.215-.641,1.478,1.478,0,0,0-1.461.813V-2.5a1.5,1.5,0,0,0,1.477.836Q25.078-1.664,25.078-4.312Zm3.3.008a5.013,5.013,0,0,1,.484-2.242A3.546,3.546,0,0,1,30.262-8.07a4.069,4.069,0,0,1,2.113-.539,3.849,3.849,0,0,1,2.793,1.047,4.2,4.2,0,0,1,1.207,2.844l.016.578A4.418,4.418,0,0,1,35.3-1.02,3.775,3.775,0,0,1,32.391.156a3.793,3.793,0,0,1-2.918-1.172A4.5,4.5,0,0,1,28.383-4.2Zm2.258.164a3.151,3.151,0,0,0,.453,1.84,1.5,1.5,0,0,0,1.3.637,1.5,1.5,0,0,0,1.281-.629A3.448,3.448,0,0,0,34.133-4.3a3.12,3.12,0,0,0-.461-1.828,1.5,1.5,0,0,0-1.3-.648,1.475,1.475,0,0,0-1.281.645A3.506,3.506,0,0,0,30.641-4.141Zm11.719,1.8a.727.727,0,0,0-.41-.652,4.659,4.659,0,0,0-1.316-.426q-3.016-.633-3.016-2.562a2.323,2.323,0,0,1,.934-1.879,3.766,3.766,0,0,1,2.441-.754,4.053,4.053,0,0,1,2.574.758,2.388,2.388,0,0,1,.965,1.969H42.273a1.092,1.092,0,0,0-.312-.8A1.322,1.322,0,0,0,40.984-7a1.351,1.351,0,0,0-.883.258.814.814,0,0,0-.312.656.7.7,0,0,0,.355.605,3.657,3.657,0,0,0,1.2.4,9.8,9.8,0,0,1,1.422.379A2.336,2.336,0,0,1,44.555-2.43a2.2,2.2,0,0,1-.992,1.871A4.28,4.28,0,0,1,41,.156a4.47,4.47,0,0,1-1.887-.379A3.166,3.166,0,0,1,37.82-1.262a2.414,2.414,0,0,1-.469-1.426h2.141a1.179,1.179,0,0,0,.445.922,1.766,1.766,0,0,0,1.109.32,1.635,1.635,0,0,0,.98-.246A.766.766,0,0,0,42.359-2.336Zm3.3-1.969a5.013,5.013,0,0,1,.484-2.242A3.546,3.546,0,0,1,47.535-8.07a4.069,4.069,0,0,1,2.113-.539,3.849,3.849,0,0,1,2.793,1.047,4.2,4.2,0,0,1,1.207,2.844l.016.578A4.418,4.418,0,0,1,52.578-1.02,3.775,3.775,0,0,1,49.664.156a3.793,3.793,0,0,1-2.918-1.172A4.5,4.5,0,0,1,45.656-4.2Zm2.258.164a3.151,3.151,0,0,0,.453,1.84,1.5,1.5,0,0,0,1.3.637,1.5,1.5,0,0,0,1.281-.629A3.448,3.448,0,0,0,51.406-4.3a3.12,3.12,0,0,0-.461-1.828,1.5,1.5,0,0,0-1.3-.648,1.475,1.475,0,0,0-1.281.645A3.506,3.506,0,0,0,47.914-4.141Z" transform="translate(-7587 -5205)" fill="#12263f"/>
    <path id="Trazado_138236" data-name="Trazado 138236" d="M4.078-11.375,7-3.125l2.906-8.25h3.078V0H10.633V-3.109l.234-5.367L7.8,0H6.188L3.125-8.469l.234,5.359V0H1.016V-11.375ZM14.531-4.3a5.013,5.013,0,0,1,.484-2.242A3.546,3.546,0,0,1,16.41-8.07a4.069,4.069,0,0,1,2.113-.539,3.849,3.849,0,0,1,2.793,1.047,4.2,4.2,0,0,1,1.207,2.844l.016.578A4.418,4.418,0,0,1,21.453-1.02,3.775,3.775,0,0,1,18.539.156a3.793,3.793,0,0,1-2.918-1.172A4.5,4.5,0,0,1,14.531-4.2Zm2.258.164a3.151,3.151,0,0,0,.453,1.84,1.5,1.5,0,0,0,1.3.637,1.5,1.5,0,0,0,1.281-.629A3.448,3.448,0,0,0,20.281-4.3a3.12,3.12,0,0,0-.461-1.828,1.5,1.5,0,0,0-1.3-.648,1.475,1.475,0,0,0-1.281.645A3.506,3.506,0,0,0,16.789-4.141ZM26.977-2.758l1.57-5.7h2.359L28.055,0H25.9L23.047-8.453h2.359ZM34.281,0H32.016V-8.453h2.266Zm-2.4-10.641a1.112,1.112,0,0,1,.34-.836,1.277,1.277,0,0,1,.926-.328,1.28,1.28,0,0,1,.922.328,1.105,1.105,0,0,1,.344.836,1.108,1.108,0,0,1-.348.844,1.283,1.283,0,0,1-.918.328A1.283,1.283,0,0,1,32.23-9.8,1.108,1.108,0,0,1,31.883-10.641Zm6.375,2.188.07.945a2.971,2.971,0,0,1,2.43-1.1A2.255,2.255,0,0,1,43-7.32a2.9,2.9,0,0,1,2.539-1.289,2.521,2.521,0,0,1,2.047.8,3.681,3.681,0,0,1,.672,2.41V0H45.992V-5.391a1.61,1.61,0,0,0-.281-1.051,1.246,1.246,0,0,0-.992-.332,1.409,1.409,0,0,0-1.406.969L43.32,0H41.063V-5.383a1.59,1.59,0,0,0-.289-1.062,1.259,1.259,0,0,0-.984-.328,1.463,1.463,0,0,0-1.391.8V0H36.141V-8.453ZM52.375,0H50.109V-8.453h2.266Zm-2.4-10.641a1.112,1.112,0,0,1,.34-.836,1.277,1.277,0,0,1,.926-.328,1.28,1.28,0,0,1,.922.328,1.105,1.105,0,0,1,.344.836,1.108,1.108,0,0,1-.348.844,1.283,1.283,0,0,1-.918.328,1.283,1.283,0,0,1-.918-.328A1.108,1.108,0,0,1,49.977-10.641ZM58.125.156A4.15,4.15,0,0,1,55.1-.984,4.054,4.054,0,0,1,53.93-4.023v-.219a5.106,5.106,0,0,1,.492-2.277,3.612,3.612,0,0,1,1.395-1.547,3.914,3.914,0,0,1,2.059-.543,3.508,3.508,0,0,1,2.73,1.094,4.444,4.444,0,0,1,1,3.1v.922H56.219a2.1,2.1,0,0,0,.66,1.328,2,2,0,0,0,1.395.5,2.437,2.437,0,0,0,2.039-.945l1.109,1.242A3.389,3.389,0,0,1,60.047-.246,4.511,4.511,0,0,1,58.125.156Zm-.258-6.937a1.414,1.414,0,0,0-1.09.453,2.341,2.341,0,0,0-.535,1.3h3.141v-.18a1.669,1.669,0,0,0-.406-1.16A1.459,1.459,0,0,0,57.867-6.781Zm7.094-1.672.07.977a2.951,2.951,0,0,1,2.43-1.133,2.453,2.453,0,0,1,2,.789,3.682,3.682,0,0,1,.672,2.359V0H67.875V-5.406a1.465,1.465,0,0,0-.312-1.043,1.4,1.4,0,0,0-1.039-.324,1.553,1.553,0,0,0-1.43.813V0H62.836V-8.453Zm9.586-2.078v2.078h1.445V-6.8H74.547v4.219a1.007,1.007,0,0,0,.18.672.9.9,0,0,0,.688.2,3.6,3.6,0,0,0,.664-.055V-.047a4.648,4.648,0,0,1-1.367.2,2.156,2.156,0,0,1-2.422-2.4V-6.8H71.055V-8.453h1.234v-2.078ZM76.664-4.3a5.013,5.013,0,0,1,.484-2.242A3.546,3.546,0,0,1,78.543-8.07a4.069,4.069,0,0,1,2.113-.539,3.849,3.849,0,0,1,2.793,1.047,4.2,4.2,0,0,1,1.207,2.844l.016.578A4.418,4.418,0,0,1,83.586-1.02,3.775,3.775,0,0,1,80.672.156a3.793,3.793,0,0,1-2.918-1.172A4.5,4.5,0,0,1,76.664-4.2Zm2.258.164a3.151,3.151,0,0,0,.453,1.84,1.5,1.5,0,0,0,1.3.637,1.5,1.5,0,0,0,1.281-.629A3.448,3.448,0,0,0,82.414-4.3a3.12,3.12,0,0,0-.461-1.828,1.5,1.5,0,0,0-1.3-.648,1.475,1.475,0,0,0-1.281.645A3.506,3.506,0,0,0,78.922-4.141Z" transform="translate(-7190 -5205)" fill="#12263f"/>
    <path id="Trazado_138231" data-name="Trazado 138231" d="M-7229.148-5336.01h172.583" fill="none" stroke="#000" stroke-width="1"/>
    <path id="Trazado_138237" data-name="Trazado 138237" d="M10.5,0,21,19H0Z" transform="translate(-7038 -5347) rotate(90)" fill="#12263f"/>
    <path id="Trazado_138232" data-name="Trazado 138232" d="M-7229.148-5336.01h41.938" transform="translate(-45.79 42)" fill="none" stroke="#000" stroke-width="2"/>
    <path id="Trazado_138233" data-name="Trazado 138233" d="M-7229.148-5336.01h41.938" transform="translate(-57.655 52)" fill="none" stroke="#000" stroke-width="2"/>
    <path id="Trazado_138234" data-name="Trazado 138234" d="M-7229.148-5336.01h41.938" transform="translate(-45.79 62)" fill="none" stroke="#000" stroke-width="2"/>
  </g>
</svg>
